<?xml version="1.0" standalone="no"?>
<!DOCTYPE svg PUBLIC "-//W3C//DTD SVG 20010904//EN"
 "http://www.w3.org/TR/2001/REC-SVG-20010904/DTD/svg10.dtd">
<svg version="1.0" xmlns="http://www.w3.org/2000/svg"
 width="700.000000pt" height="700.000000pt" viewBox="0 0 700.000000 700.000000"
 preserveAspectRatio="xMidYMid meet">
<metadata>
Created by potrace 1.11, written by Peter Selinger 2001-2013
</metadata>
<g transform="translate(0.000000,700.000000) scale(0.100000,-0.100000)"
fill="#000000" stroke="none">
<path d="M5235 6935 c-44 -30 -84 -58 -90 -62 -5 -5 -50 -38 -100 -73 -49 -36
-132 -100 -183 -143 -51 -43 -100 -79 -110 -79 -9 0 -46 2 -82 6 -63 6 -131
11 -295 21 -44 3 -93 7 -110 10 -16 2 -75 6 -130 10 -55 3 -116 8 -135 10 -19
3 -71 7 -115 10 -44 3 -100 8 -125 10 -25 3 -79 7 -120 10 -41 3 -100 8 -130
10 -30 3 -84 7 -120 10 -87 7 -193 15 -260 20 -30 3 -84 7 -120 10 -36 2 -94
7 -130 11 -36 3 -63 3 -60 1 7 -7 252 -135 328 -171 60 -29 75 -42 50 -43 -34
-1 -188 -14 -223 -18 -22 -3 -74 -7 -115 -10 -41 -3 -93 -7 -115 -9 -22 -3
-74 -8 -115 -11 -75 -6 -153 -12 -244 -20 -27 -3 -51 -6 -52 -8 -4 -4 49 -29
310 -146 38 -17 67 -33 65 -35 -2 -2 -36 -6 -74 -10 -39 -4 -81 -8 -95 -11
-14 -2 -56 -7 -95 -10 -38 -3 -83 -8 -100 -10 -16 -2 -82 -9 -145 -15 -63 -6
-128 -13 -145 -15 -16 -2 -61 -7 -100 -11 -38 -3 -77 -8 -85 -9 -8 -2 -17 -4
-20 -4 -4 -1 153 -93 270 -158 51 -29 69 -43 54 -43 -9 0 -211 -25 -279 -35
-16 -2 -52 -7 -80 -10 -27 -3 -61 -8 -75 -10 -14 -3 -47 -7 -75 -10 -27 -3
-79 -11 -115 -17 l-64 -11 64 -29 c36 -16 92 -41 125 -56 153 -69 189 -89 169
-95 -475 -128 -663 -182 -657 -187 7 -6 72 -26 112 -35 9 -2 72 -20 141 -41
69 -20 131 -37 138 -37 38 -1 4 -13 -520 -180 -37 -12 -68 -25 -68 -28 0 -5
145 -51 170 -54 25 -3 160 -49 160 -55 0 -6 -233 -137 -403 -227 l-60 -31 166
-53 c92 -29 167 -55 166 -58 0 -3 -30 -29 -67 -56 -237 -179 -380 -290 -378
-293 2 -2 19 -5 37 -7 42 -5 178 -26 199 -30 8 -2 27 -4 43 -4 15 -1 27 -4 27
-8 0 -7 -62 -87 -155 -198 -18 -22 -55 -67 -81 -100 -27 -33 -53 -63 -59 -67
-11 -8 -9 -8 160 -13 61 -2 116 -4 123 -4 13 -1 13 1 -5 -291 -9 -158 -10
-344 -1 -415 4 -27 14 -97 22 -155 9 -58 18 -121 21 -140 45 -306 66 -410 81
-410 11 0 13 26 9 148 -12 316 -14 402 -15 537 -1 77 1 149 3 160 3 11 8 54
12 95 3 41 8 82 10 90 4 14 13 103 20 179 6 65 16 156 20 171 3 8 7 29 10 45
5 31 11 59 20 95 3 11 7 28 9 38 17 69 109 379 127 427 29 79 202 437 242 500
17 28 85 122 151 210 122 162 317 367 456 480 178 144 471 327 674 419 28 13
71 32 96 44 51 23 264 100 379 138 178 58 630 156 781 169 14 2 63 6 110 10
47 4 88 9 91 11 3 2 59 6 125 9 65 4 138 8 162 10 47 5 48 8 -5 -69 -18 -27
-36 -59 -39 -72 -4 -16 -14 -24 -28 -25 -11 0 -29 -2 -39 -4 -9 -2 -52 -6 -95
-10 -42 -3 -84 -8 -92 -10 -15 -4 -33 -7 -150 -20 -30 -4 -71 -10 -90 -15 -19
-5 -53 -11 -75 -15 -76 -11 -236 -45 -357 -75 -453 -113 -821 -276 -1088 -479
-47 -36 -90 -70 -96 -75 -6 -6 -30 -27 -54 -46 -130 -104 -341 -315 -460 -460
-83 -101 -240 -326 -240 -345 0 -4 -8 -19 -19 -33 -10 -15 -42 -74 -70 -132
-29 -58 -56 -112 -60 -120 -15 -27 -93 -223 -118 -295 -50 -142 -85 -263 -113
-390 -29 -128 -32 -152 -47 -290 -15 -134 -8 -438 12 -535 3 -14 10 -52 16
-85 5 -33 14 -73 19 -90 5 -16 21 -70 36 -120 61 -209 191 -465 329 -650 92
-124 117 -111 -213 -110 l-287 0 -2 -425 c0 -234 -2 -427 -2 -430 -1 -3 -184
-5 -408 -5 l-408 0 0 -530 0 -530 2818 -3 2817 -2 0 533 0 532 -407 0 -408 0
-2 420 c-1 230 -4 424 -7 430 -2 7 -99 10 -294 10 l-291 -1 -27 51 c-15 27
-71 115 -125 195 -139 207 -236 403 -313 630 -31 92 -65 221 -72 275 -3 22 -9
56 -14 75 -10 44 -10 36 -15 215 -4 138 2 203 29 320 45 202 198 402 387 510
l42 23 71 -91 c124 -161 317 -345 484 -461 139 -96 389 -196 500 -199 6 0 12
-3 13 -6 3 -29 13 -64 34 -128 82 -242 245 -347 482 -309 87 14 272 88 330
132 96 73 153 227 156 424 3 174 -41 293 -185 498 -77 109 -87 129 -144 292
-175 498 -384 977 -538 1229 -61 100 -155 231 -167 231 -14 0 -33 63 -44 155
-3 22 -7 49 -9 61 -14 71 -21 205 -20 384 1 173 4 217 21 280 12 41 19 77 17
79 -8 9 -151 -97 -217 -162 l-69 -68 7 66 c3 36 8 74 9 83 2 9 9 49 16 87 13
80 38 164 53 183 19 24 -9 10 -88 -43z"/>
</g>
</svg>
